<?xml version="1.0" encoding="utf-8"?><svg viewBox="0 0 88 73" xmlns="http://www.w3.org/2000/svg" xmlns:xlink="http://www.w3.org/1999/xlink"><style>:root>svg{display:none}:root>svg:target{display:block}</style><svg fill="none" viewBox="0 0 65 73" id="Checker" xmlns="http://www.w3.org/2000/svg"><path d="M64.481 25.61H43.053v46.8H35.91v-21.6h-7.143v21.6h-7.143v-46.8H.196v-7.2H64.48v7.2zM32.34.41c1.894 0 3.71.759 5.05 2.109a7.23 7.23 0 012.092 5.091 7.23 7.23 0 01-2.092 5.091 7.114 7.114 0 01-5.05 2.11 7.114 7.114 0 01-5.051-2.11 7.23 7.23 0 01-2.092-5.09c0-3.997 3.178-7.2 7.143-7.2z" fill="#EC5863"/></svg><svg fill="none" viewBox="0 0 88 73" id="Conditions" xmlns="http://www.w3.org/2000/svg"><path d="M24.581.968c-6.376 0-12.492 2.502-17 6.955A23.602 23.602 0 00.539 24.716c0 2.159.393 4.318.961 6.477h17.836l5.552-14.552c1.31-3.454 6.47-3.8 8.13 0l9.05 23.187 2.578-6.131c.569-1.425 2.099-2.504 3.978-2.504h38.381c.569-2.16.962-4.318.962-6.477a23.602 23.602 0 00-7.042-16.793C76.416 3.47 70.301.968 63.925.968c-8.131 0-15.3 4.015-19.672 10.104C39.882 4.982 32.713.968 24.58.968zM4.911 37.669c-1.16 0-2.272.455-3.092 1.265a4.291 4.291 0 00-1.28 3.053c0 1.145.46 2.244 1.28 3.053a4.399 4.399 0 003.091 1.265h10.666l24.306 23.748c4.37 3.886 4.37 3.886 8.742 0L72.93 46.305h10.666c1.16 0 2.271-.455 3.09-1.265a4.291 4.291 0 001.281-3.053c0-1.145-.46-2.243-1.28-3.053a4.399 4.399 0 00-3.091-1.265H50.373L46.307 47.6c-1.748 4.361-6.775 3.757-8.393.13l-8.961-23.014-4.197 10.06c-.655 1.641-2.142 2.893-4.109 2.893H4.91z" fill="#EC5863"/></svg><svg fill="none" viewBox="0 0 68 73" id="Medical" xmlns="http://www.w3.org/2000/svg"><path d="M33.725.638c-5.838 0-9.332.887-11.553 1.992-1.112.553-1.901 1.135-2.432 1.73-.534.596-.87 1.47-.87 1.47a2.761 2.761 0 00-.173.693l-1.479 18.953c-.02.116.02.304 0 .432l-.172 1.905a2.764 2.764 0 000 .518c0 9.138 7.506 16.615 16.679 16.615 9.173 0 16.679-7.477 16.679-16.615v-.432-.086l-1.651-21.29a2.761 2.761 0 00-.173-.692s-.336-.875-.87-1.47c-.53-.599-1.32-1.18-2.432-1.731C43.057 1.522 39.563.638 33.725.638zm0 44.308C15.378 44.946.367 53.547.367 61.301v11.337h66.716V61.301c0-7.366-13.571-15.48-30.664-16.269a39.879 39.879 0 00-2.694-.086zm0-38.77c5.282 0 7.92.832 9.034 1.385.373.186.417.258.523.347L44.41 22.1c-2.558.155-6.044.692-10.686.692s-8.126-.537-10.686-.692l1.129-14.192c.103-.089.15-.161.523-.347 1.114-.553 3.752-1.384 9.034-1.384zm-2.26 2.77v3.29h-3.3v4.5h3.303v3.287h4.514v-3.29h3.303v-4.497h-3.303v-3.29h-4.517zm-6.08 42.23L32.51 67.1H5.927v-5.799c0-2.063 7.088-8.105 19.459-10.124zm16.68 0c12.37 2.022 19.458 8.062 19.458 10.125V67.1H34.94l7.124-15.923z" fill="#EC5863"/></svg><svg fill="none" viewBox="0 0 44 44" id="play" xmlns="http://www.w3.org/2000/svg"><circle cx="22" cy="22" r="21.5" stroke="#4285F4"/><path d="M18.833 16.515l9.5 5.485-9.5 5.485v-10.97z" stroke="#4285F4"/></svg></svg>